<svg width="483.42001953125px" height="122.02138671875px" xmlns="http://www.w3.org/2000/svg" viewBox="8.289990234375011 13.989306640625003 483.42001953125 122.02138671875" style="background: rgba(0, 0, 0, 0);" preserveAspectRatio="xMidYMid"><defs><linearGradient id="editing-gradient-gradient" x1="0.17860619515673032" x2="0.8213938048432696" y1="0.116977778440511" y2="0.883022221559489" gradientUnits="objectBoundingBox"><stop offset="0" stop-color="#f0f"></stop><stop offset="1" stop-color="#0ff"></stop></linearGradient></defs><g><g transform="translate(78.95999205112457, 107.02218627929688)"><path d="M34.50-13.25L34.50-13.25L34.50-13.25Q36.16-12.03 36.16-9.44L36.16-9.44L36.16-9.44Q36.16-6.85 35.04-5.02L35.04-5.02L35.04-5.02Q33.92-3.20 31.74-1.79L31.74-1.79L31.74-1.79Q27.07 1.22 18.91 1.22L18.91 1.22L18.91 1.22Q10.75 1.22 6.30-3.04L6.30-3.04L6.30-3.04Q1.86-7.30 1.86-14.85L1.86-14.85L1.86-14.85Q1.86-25.54 7.42-33.66L7.42-33.66L7.42-33.66Q11.65-39.68 19.20-42.24L19.20-42.24L19.20-42.24Q23.10-43.52 26.94-43.52L26.94-43.52L26.94-43.52Q30.78-43.52 33.15-43.01L33.15-43.01L33.15-43.01Q35.52-42.50 37.31-41.47L37.31-41.47L37.31-41.47Q41.22-39.23 41.22-35.65L41.22-35.65L41.22-35.65Q41.22-32.38 38.14-29.95L38.14-29.95L38.14-29.95Q35.33-27.78 33.02-27.78L33.02-27.78L33.02-27.78Q30.72-27.78 29.76-28.10L29.76-28.10L29.76-28.10Q30.02-30.40 30.02-31.90L30.02-31.90L30.02-31.90Q30.02-33.41 29.95-34.50L29.95-34.50L29.95-34.50Q29.89-35.58 29.57-36.61L29.57-36.61L29.57-36.61Q28.93-38.98 26.98-38.98L26.98-38.98L26.98-38.98Q25.02-38.98 23.07-37.15L23.07-37.15L23.07-37.15Q21.12-35.33 19.46-32.26L19.46-32.26L19.46-32.26Q15.68-25.28 15.68-17.02L15.68-17.02L15.68-17.02Q15.68-13.06 17.92-10.78L17.92-10.78L17.92-10.78Q20.16-8.51 24.96-8.51L24.96-8.51L24.96-8.51Q28.54-8.51 31.94-10.88L31.94-10.88L31.94-10.88Q33.41-11.90 34.50-13.25ZM67.39-20.61L80.32-21.76L80.32-21.76Q75.71-11.65 75.71 0.06L75.71 0.06L75.71 0.06Q73.98 1.28 71.46 1.28L71.46 1.28L71.46 1.28Q68.93 1.28 67.33 0.10L67.33 0.10L67.33 0.10Q65.73-1.09 65.41-2.30L65.41-2.30L65.41-2.30Q63.81-0.64 61.22 0.32L61.22 0.32L61.22 0.32Q58.62 1.28 55.87 1.28L55.87 1.28L55.87 1.28Q53.12 1.28 50.72 0.38L50.72 0.38L50.72 0.38Q48.32-0.51 46.46-2.50L46.46-2.50L46.46-2.50Q42.37-6.85 42.37-15.10L42.37-15.10L42.37-15.10Q42.37-27.90 49.22-35.58L49.22-35.58L49.22-35.58Q56.26-43.52 68.74-43.52L68.74-43.52L68.74-43.52Q77.38-43.52 80.45-39.04L80.45-39.04L80.45-39.04Q81.41-37.63 81.41-35.94L81.41-35.94L81.41-35.94Q81.41-34.24 80.67-32.80L80.67-32.80L80.67-32.80Q79.94-31.36 78.78-30.21L78.78-30.21L78.78-30.21Q76.03-27.65 72.64-27.65L72.64-27.65L72.64-27.65Q71.30-27.65 70.02-28.10L70.02-28.10L70.02-28.10Q70.27-30.02 70.27-32.26L70.27-32.26L70.27-32.26Q70.27-34.50 70.11-35.52L70.11-35.52L70.11-35.52Q69.95-36.54 69.57-37.38L69.57-37.38L69.57-37.38Q68.74-39.10 66.91-39.10L66.91-39.10L66.91-39.10Q65.09-39.10 63.07-37.15L63.07-37.15L63.07-37.15Q61.06-35.20 59.46-32L59.46-32L59.46-32Q55.94-24.83 55.94-16.19L55.94-16.19L55.94-16.19Q55.94-12.22 57.47-9.41L57.47-9.41L57.47-9.41Q59.14-6.34 62.08-6.34L62.08-6.34L62.08-6.34Q63.10-6.34 64.03-6.85L64.03-6.85L64.03-6.85Q64.96-7.36 65.34-7.74L65.34-7.74L67.39-20.61ZM116.86-13.25L116.86-13.25L116.86-13.25Q118.53-12.03 118.53-9.44L118.53-9.44L118.53-9.44Q118.53-6.85 117.41-5.02L117.41-5.02L117.41-5.02Q116.29-3.20 114.11-1.79L114.11-1.79L114.11-1.79Q109.44 1.22 101.28 1.22L101.28 1.22L101.28 1.22Q93.12 1.22 88.67-3.04L88.67-3.04L88.67-3.04Q84.22-7.30 84.22-14.85L84.22-14.85L84.22-14.85Q84.22-25.54 89.79-33.66L89.79-33.66L89.79-33.66Q94.02-39.68 101.57-42.24L101.57-42.24L101.57-42.24Q105.47-43.52 109.31-43.52L109.31-43.52L109.31-43.52Q113.15-43.52 115.52-43.01L115.52-43.01L115.52-43.01Q117.89-42.50 119.68-41.47L119.68-41.47L119.68-41.47Q123.58-39.23 123.58-35.65L123.58-35.65L123.58-35.65Q123.58-32.38 120.51-29.95L120.51-29.95L120.51-29.95Q117.70-27.78 115.39-27.78L115.39-27.78L115.39-27.78Q113.09-27.78 112.13-28.10L112.13-28.10L112.13-28.10Q112.38-30.40 112.38-31.90L112.38-31.90L112.38-31.90Q112.38-33.41 112.32-34.50L112.32-34.50L112.32-34.50Q112.26-35.58 111.94-36.61L111.94-36.61L111.94-36.61Q111.30-38.98 109.34-38.98L109.34-38.98L109.34-38.98Q107.39-38.98 105.44-37.15L105.44-37.15L105.44-37.15Q103.49-35.33 101.82-32.26L101.82-32.26L101.82-32.26Q98.05-25.28 98.05-17.02L98.05-17.02L98.05-17.02Q98.05-13.06 100.29-10.78L100.29-10.78L100.29-10.78Q102.53-8.51 107.33-8.51L107.33-8.51L107.33-8.51Q110.91-8.51 114.30-10.88L114.30-10.88L114.30-10.88Q115.78-11.90 116.86-13.25ZM124.80-15.62L124.80-15.62L124.80-15.62Q124.80-27.71 131.07-35.33L131.07-35.33L131.07-35.33Q137.73-43.58 149.31-43.58L149.31-43.58L149.31-43.58Q157.70-43.58 161.92-39.52L161.92-39.52L161.92-39.52Q166.14-35.46 166.14-26.88L166.14-26.88L166.14-26.88Q166.14-13.82 159.49-6.21L159.49-6.21L159.49-6.21Q152.90 1.28 141.82 1.28L141.82 1.28L141.82 1.28Q133.18 1.28 128.99-3.04L128.99-3.04L128.99-3.04Q124.80-7.36 124.80-15.62ZM141.63-28.86L141.63-28.86L141.63-28.86Q138.75-17.34 138.75-8.26L138.75-8.26L138.75-8.26Q138.75-6.08 139.49-4.67L139.49-4.67L139.49-4.67Q140.22-3.26 142.18-3.26L142.18-3.26L142.18-3.26Q144.13-3.26 145.34-4.19L145.34-4.19L145.34-4.19Q146.56-5.12 147.52-7.23L147.52-7.23L147.52-7.23Q149.06-10.69 150.50-18.02L150.50-18.02L150.50-18.02Q151.94-25.34 152.06-28.38L152.06-28.38L152.06-28.38Q152.19-31.42 152.19-33.73L152.19-33.73L152.19-33.73Q152.19-36.03 151.49-37.50L151.49-37.50L151.49-37.50Q150.78-38.98 148.90-38.98L148.90-38.98L148.90-38.98Q147.01-38.98 145.73-37.82L145.73-37.82L145.73-37.82Q143.36-35.65 141.63-28.86ZM170.88-39.68L170.88-39.68L170.88-39.68Q172.74-43.52 177.89-43.52L177.89-43.52L177.89-43.52Q183.04-43.52 185.44-40.54L185.44-40.54L185.44-40.54Q187.84-37.57 187.84-30.72L187.84-30.72L187.84-7.87L203.39-42.18L211.01-42.18L191.10 0L176.13 0L174.21-30.72L174.21-30.72Q174.02-34.11 173.09-36.42L173.09-36.42L173.09-36.42Q172.16-38.72 170.88-39.68ZM221.70 0L207.74 0L215.87-42.24L229.95-42.24L221.70 0ZM272.90-26.56L272.90-26.56L272.90-26.56Q272.90 0.70 243.33 0.70L243.33 0.70L243.33 0.70Q238.59 0.70 230.78-0.45L230.78-0.45L237.95-38.27L237.95-38.27Q238.46-40.83 238.78-42.30L238.78-42.30L238.78-42.30Q248.51-43.01 252.83-43.01L252.83-43.01L252.83-43.01Q257.15-43.01 261.12-42.11L261.12-42.11L261.12-42.11Q265.09-41.22 267.71-39.23L267.71-39.23L267.71-39.23Q272.90-35.33 272.90-26.56ZM259.71-28.93L259.71-28.93L259.71-28.93Q259.71-38.46 252.86-38.46L252.86-38.46L252.22-38.46L252.22-38.46Q251.90-38.46 251.58-38.40L251.58-38.40L244.99-4.03L244.99-4.03Q245.25-3.90 245.50-3.90L245.50-3.90L246.02-3.90L246.02-3.90Q248.38-3.90 250.85-5.38L250.85-5.38L250.85-5.38Q253.31-6.85 255.23-9.86L255.23-9.86L255.23-9.86Q259.71-16.83 259.71-28.93ZM271.49 9.54L271.49 9.54L271.49 9.54Q271.49 8.38 272.06 6.72L272.06 6.72L292.99-51.07L292.99-51.07Q294.14-51.26 296.42-51.26L296.42-51.26L296.42-51.26Q298.69-51.26 300.06-50.66L300.06-50.66L300.06-50.66Q301.44-50.05 301.44-48.19L301.44-48.19L301.44-48.19Q301.44-46.59 300.42-43.65L300.42-43.65L280.06 12.54L280.06 12.54Q279.55 12.80 276.54 12.80L276.54 12.80L276.54 12.80Q271.49 12.80 271.49 9.54ZM312.70 0L299.01 0L306.82-42.05L306.82-42.05Q313.15-42.75 322.40-42.75L322.40-42.75L322.40-42.75Q331.65-42.75 335.94-40.06L335.94-40.06L335.94-40.06Q340.22-37.38 340.22-31.97L340.22-31.97L340.22-31.97Q340.22-26.56 337.44-23.17L337.44-23.17L337.44-23.17Q334.66-19.78 329.86-18.69L329.86-18.69L329.86-18.69Q330.94-13.38 333.44-9.09L333.44-9.09L333.44-9.09Q335.74-5.06 338.43-3.78L338.43-3.78L338.43-3.78Q337.47-1.09 335.52 0.10L335.52 0.10L335.52 0.10Q333.57 1.28 330.78 1.28L330.78 1.28L330.78 1.28Q328 1.28 325.82-0.35L325.82-0.35L325.82-0.35Q323.65-1.98 321.92-4.99L321.92-4.99L321.92-4.99Q318.27-11.52 317.89-21.82L317.89-21.82L318.34-21.82L318.34-21.82Q323.07-21.95 325.44-24.42L325.44-24.42L325.44-24.42Q327.81-26.88 327.81-32.06L327.81-32.06L327.81-32.06Q327.81-38.53 322.37-38.78L322.37-38.78L320.96-38.78L320.96-38.78Q320.38-38.78 320.06-38.72L320.06-38.72L312.70 0Z" fill="url(#editing-gradient-gradient)"></path></g></g><style>text {
  font-size: 64px;
  font-family: Arial Black;
  dominant-baseline: central;
  text-anchor: middle;
}</style></svg>