<svg width="264" height="150" viewBox="0 0 264 150" fill="none" xmlns="http://www.w3.org/2000/svg">
<rect width="264" height="150" fill="#00112C"/>
<path d="M132.5 38C111.791 38 95 55.2266 95 76.4542C95 93.4464 105.748 107.844 120.647 112.933C120.882 112.983 121.083 113 121.283 113C122.673 113 123.209 111.979 123.209 111.092C123.209 110.171 123.175 107.76 123.158 104.546C121.752 104.864 120.497 104.998 119.375 104.998C112.16 104.998 110.519 99.3895 110.519 99.3895C108.811 94.9531 106.35 93.7645 106.35 93.7645C103.086 91.471 106.334 91.404 106.585 91.404C106.602 91.404 106.602 91.404 106.602 91.404C110.368 91.7388 112.344 95.3884 112.344 95.3884C114.219 98.6696 116.73 99.5904 118.973 99.5904C120.731 99.5904 122.321 99.0212 123.259 98.5859C123.594 96.1083 124.565 94.4174 125.636 93.4464C117.316 92.4754 108.56 89.1775 108.56 74.4453C108.56 70.2433 110.017 66.8114 112.411 64.1328C112.026 63.1618 110.737 59.2444 112.779 53.9542C112.779 53.9542 113.047 53.8705 113.616 53.8705C114.972 53.8705 118.036 54.3895 123.092 57.9051C126.088 57.0513 129.286 56.6328 132.483 56.6161C135.664 56.6328 138.878 57.0513 141.875 57.9051C146.931 54.3895 149.994 53.8705 151.35 53.8705C151.92 53.8705 152.188 53.9542 152.188 53.9542C154.23 59.2444 152.941 63.1618 152.556 64.1328C154.95 66.8281 156.406 70.26 156.406 74.4453C156.406 89.2109 147.634 92.4587 139.28 93.4129C140.619 94.6016 141.825 96.9453 141.825 100.528C141.825 105.667 141.775 109.819 141.775 111.075C141.775 111.979 142.294 113 143.683 113C143.884 113 144.118 112.983 144.353 112.933C159.269 107.844 170 93.4297 170 76.4542C170 55.2266 153.209 38 132.5 38Z" fill="white"/>
</svg>
